<?xml version="1.0" standalone="no"?>
<!DOCTYPE svg PUBLIC "-//W3C//DTD SVG 20010904//EN"
 "http://www.w3.org/TR/2001/REC-SVG-20010904/DTD/svg10.dtd">
<svg version="1.0" xmlns="http://www.w3.org/2000/svg"
 width="2048.000000pt" height="2048.000000pt" viewBox="0 0 2048.000000 2048.000000"
 preserveAspectRatio="xMidYMid meet">
<metadata>
Created by potrace 1.11, written by Peter Selinger 2001-2013
</metadata>
<g transform="translate(0.000000,2048.000000) scale(0.100000,-0.100000)"
fill="#000000" stroke="none">
<path d="M0 16272 l0 -4208 213 -17 c116 -10 338 -29 492 -42 305 -27 451 -30
590 -15 101 12 115 20 152 95 62 123 139 218 278 344 14 13 35 42 46 63 19 37
23 62 33 175 2 29 7 57 11 63 12 19 91 11 216 -23 30 -9 102 -19 160 -22 57
-4 137 -13 178 -21 41 -8 120 -17 175 -19 56 -3 147 -8 202 -10 56 -3 126 -12
155 -20 56 -14 357 -155 397 -186 12 -10 57 -32 98 -49 l75 -31 52 24 c77 36
255 166 1162 847 451 339 1590 1194 2530 1900 2592 1946 2650 1990 2661 2035
5 22 -22 85 -36 85 -6 0 -59 82 -118 180 -24 40 -49 112 -55 155 -3 27 -10 31
-83 56 -107 37 -191 53 -444 84 -118 15 -224 31 -235 36 -11 5 -87 18 -170 29
l-150 19 105 -5 c413 -21 868 -24 932 -5 44 12 51 19 84 80 59 105 116 180
207 268 90 89 107 122 107 208 0 31 7 60 21 81 24 40 42 42 164 19 43 -9 127
-17 185 -19 61 -2 123 -11 148 -20 65 -24 194 -37 338 -34 127 2 130 2 209
-32 89 -38 310 -154 367 -192 22 -15 59 -28 92 -32 63 -8 74 -19 106 -101 13
-33 30 -69 39 -80 48 -59 84 -122 111 -193 47 -121 53 -126 286 -203 127 -42
131 -42 284 -44 130 -2 171 -7 255 -29 55 -14 110 -26 122 -26 12 0 23 -4 25
-10 4 -12 89 -24 323 -46 99 -9 184 -20 190 -25 5 -6 -9 -7 -35 -4 -223 24
-416 27 -580 10 -63 -6 -86 -4 -144 14 -98 30 -171 34 -434 22 -191 -8 -238
-13 -262 -28 -17 -9 -30 -20 -30 -23 0 -3 -29 -55 -65 -115 -54 -91 -65 -118
-65 -155 0 -57 32 -192 64 -267 49 -118 47 -174 -9 -197 -42 -18 -57 -13 -206
58 -95 45 -129 55 -129 37 0 -19 53 -158 85 -221 18 -36 36 -76 40 -90 4 -14
46 -110 92 -214 46 -104 92 -209 103 -235 10 -25 48 -109 85 -186 37 -77 73
-156 80 -175 7 -19 368 -820 803 -1780 434 -960 1137 -2512 1562 -3450 425
-938 923 -2038 1107 -2445 936 -2067 1007 -2221 1060 -2298 19 -27 33 -37 52
-37 14 0 49 -7 76 -16 74 -22 194 -35 333 -34 68 0 142 -5 165 -11 49 -12 317
-146 395 -196 31 -19 78 -39 111 -45 67 -13 98 -38 112 -92 6 -23 37 -80 69
-127 32 -48 63 -102 69 -121 6 -18 24 -58 39 -88 36 -69 62 -84 257 -146 148
-47 152 -48 301 -50 118 -2 165 -7 215 -23 72 -22 209 -43 439 -66 197 -20
402 -47 396 -52 -2 -2 -139 7 -305 21 -318 27 -441 32 -441 17 0 -5 28 -16 63
-24 l62 -15 -86 -1 c-48 0 -153 8 -234 19 -260 35 -614 22 -676 -25 -14 -10
-34 -37 -44 -58 -11 -22 -34 -62 -52 -89 -58 -92 -54 -195 16 -388 37 -100 40
-159 10 -186 -27 -24 -82 -24 -134 0 -22 10 -71 33 -110 51 -93 44 -151 54
-265 48 -70 -4 -126 1 -214 16 -65 12 -134 21 -153 21 -28 0 -43 9 -79 45 -50
52 -81 57 -153 25 -24 -11 -49 -20 -57 -20 -7 0 -34 19 -59 42 -45 41 -110 66
-261 98 -58 12 -173 50 -209 68 -52 26 -103 76 -175 173 -39 52 -74 99 -80
106 -19 24 -87 139 -98 168 -6 17 -16 48 -21 70 -10 37 -16 43 -78 72 -69 32
-135 44 -473 87 l-115 15 125 -5 c69 -2 154 -7 190 -10 83 -8 71 12 -16 26
-68 11 -729 85 -852 96 -45 3 -81 9 -78 11 4 5 53 2 626 -38 307 -22 581 -22
632 -1 30 12 85 82 95 120 8 34 -20 59 -152 132 -100 56 -6589 3301 -7370
3685 -181 89 -1149 571 -2150 1071 -2291 1145 -2472 1233 -2495 1219 -11 -7 5
-74 40 -173 17 -46 30 -103 30 -127 0 -101 -108 -111 -300 -28 -61 26 -75 28
-210 29 -80 0 -172 4 -205 7 -33 4 -96 9 -140 12 -102 7 -105 8 -152 54 -46
43 -82 54 -158 45 -47 -6 -65 -1 -192 50 -77 31 -146 56 -153 56 -8 0 -27 4
-44 10 -17 5 -62 19 -101 31 -90 27 -170 64 -219 102 -47 37 -214 231 -229
266 -6 15 -28 52 -49 83 -21 31 -38 61 -38 67 0 6 -7 25 -14 43 -8 18 -18 53
-21 78 -5 43 -9 47 -53 67 -26 13 -90 30 -142 38 -52 9 -97 18 -101 21 -4 2
-70 13 -148 23 -77 11 -144 22 -149 25 -17 10 -148 27 -480 61 -185 19 -337
35 -339 35 -2 0 -3 -2711 -3 -6025 l0 -6025 10240 0 10240 0 0 10240 0 10240
-10240 0 -10240 0 0 -4208z"/>
<path d="M10037 16966 c-120 -73 -299 -205 -2017 -1495 -4041 -3034 -4246
-3189 -4343 -3282 l-48 -46 50 -94 c27 -52 57 -118 66 -147 22 -66 53 -92 155
-131 142 -55 183 -63 306 -55 119 7 189 -5 280 -47 53 -23 129 -33 659 -84
204 -20 375 -38 380 -40 17 -9 -199 5 -510 31 -308 26 -374 26 -427 -1 -47
-23 -126 -18 -261 16 -104 26 -133 30 -197 25 -41 -4 -141 -10 -223 -15 -135
-7 -149 -10 -172 -31 -14 -13 -25 -31 -25 -39 0 -9 -13 -36 -30 -61 l-30 -45
23 -22 c12 -12 72 -49 132 -83 61 -34 1213 -612 2560 -1285 8466 -4225 9100
-4541 9310 -4637 127 -59 224 -98 241 -98 6 0 28 17 48 37 37 38 60 96 70 178
11 80 11 80 54 89 51 12 53 26 18 118 -45 121 -410 936 -866 1938 -52 115
-223 491 -1130 2495 -2737 6043 -2667 5891 -2779 6112 -28 57 -62 133 -76 169
-34 91 -123 259 -149 282 -24 22 -127 42 -211 42 -57 0 -59 1 -105 51 -45 49
-48 50 -86 43 -21 -3 -50 -12 -64 -19 -59 -30 -68 -28 -108 13 -21 21 -53 44
-72 51 -58 19 -201 59 -265 75 -33 8 -69 18 -80 21 -13 4 -40 -6 -78 -29z"/>
<path d="M18262 4592 c-15 -10 112 -33 176 -31 l37 1 -30 13 c-39 17 -166 29
-183 17z"/>
</g>
</svg>
